<?xml version="1.0" encoding="UTF-8" standalone="no"?>
<!-- Created with Inkscape (http://www.inkscape.org/) -->

<svg
   xmlns:dc="http://purl.org/dc/elements/1.1/"
   xmlns:cc="http://creativecommons.org/ns#"
   xmlns:rdf="http://www.w3.org/1999/02/22-rdf-syntax-ns#"
   xmlns:svg="http://www.w3.org/2000/svg"
   xmlns="http://www.w3.org/2000/svg"
   xmlns:sodipodi="http://sodipodi.sourceforge.net/DTD/sodipodi-0.dtd"
   xmlns:inkscape="http://www.inkscape.org/namespaces/inkscape"
   width="100mm"
   height="100mm"
   viewBox="0 0 100 100"
   version="1.1"
   id="svg8"
   inkscape:version="0.92.4 (5da689c313, 2019-01-14)"
   sodipodi:docname="icon.svg"
   inkscape:export-xdpi="380.65799"
   inkscape:export-ydpi="380.65799">
  <defs
     id="defs2" />
  <sodipodi:namedview
     id="base"
     pagecolor="#ffffff"
     bordercolor="#666666"
     borderopacity="1.0"
     inkscape:pageopacity="0.0"
     inkscape:pageshadow="2"
     inkscape:zoom="0.7"
     inkscape:cx="-29.757327"
     inkscape:cy="122.97059"
     inkscape:document-units="mm"
     inkscape:current-layer="layer1"
     showgrid="false"
     inkscape:window-width="1680"
     inkscape:window-height="987"
     inkscape:window-x="-8"
     inkscape:window-y="-8"
     inkscape:window-maximized="1" />
  <metadata
     id="metadata5">
    <rdf:RDF>
      <cc:Work
         rdf:about="">
        <dc:format>image/svg+xml</dc:format>
        <dc:type
           rdf:resource="http://purl.org/dc/dcmitype/StillImage" />
        <dc:title />
      </cc:Work>
    </rdf:RDF>
  </metadata>
  <g
     inkscape:label="Layer 1"
     inkscape:groupmode="layer"
     id="layer1"
     transform="translate(-76.319845,-54.124988)">
    <circle
       id="path3731"
       cx="126.31985"
       cy="104.12498"
       style="fill:#ffffff;fill-opacity:1;stroke-width:0.2605263"
       r="49.5" />
    <g
       id="g818"
       transform="translate(11.430757,-0.863103)">
      <path
         sodipodi:nodetypes="cccc"
         inkscape:connector-curvature="0"
         id="path870"
         d="m 141.74107,140.13988 c 0,0 -39.3748,-28.71629 -23.43453,-47.247025 L 94.116069,97.428567 C 79.752975,137.87202 141.74107,140.13988 141.74107,140.13988 Z"
         style="fill:#444444;fill-opacity:1;stroke:none;stroke-width:0.26458332px;stroke-linecap:butt;stroke-linejoin:miter;stroke-opacity:1" />
      <path
         sodipodi:nodetypes="cczc"
         inkscape:connector-curvature="0"
         id="path819"
         d="m 88.068451,154.12499 c 0,0 -20.416728,-45.27637 3.401786,-56.69642 0,0 64.723583,-4.238581 34.017853,-0.377982 C 94.782365,100.9112 88.068451,154.12499 88.068451,154.12499 Z"
         style="fill:#555555;fill-opacity:1;stroke:none;stroke-width:0.26458332px;stroke-linecap:butt;stroke-linejoin:miter;stroke-opacity:1" />
      <path
         sodipodi:nodetypes="cscccsac"
         inkscape:connector-curvature="0"
         id="path817"
         d="m 153.45833,87.223209 c 0,0 -33.27353,-5.918975 -39.68749,-11.339281 -4.95382,-4.186375 -1.13394,-20.032736 -1.13394,-20.032736 0,0 -13.341129,15.502253 -19.276781,23.812499 -15.842188,18.521449 -17.301092,28.888489 -17.00893,53.672609 0,0 4.880239,-20.94734 13.985121,-28.34821 13.98944,-11.371246 41.26372,1.94034 57.45238,-8.69345 2.98036,-1.957694 5.66964,-9.071431 5.66964,-9.071431 z"
         style="fill:#666666;fill-opacity:1;stroke:none;stroke-width:0.26458332px;stroke-linecap:butt;stroke-linejoin:miter;stroke-opacity:1" />
    </g>
  </g>
</svg>
